{
  "accessors": [
    {
      "bufferView": 2,
      "componentType": 5126,
      "count": 144,
      "max": [
        0.5559011101722717,
        0.4553897976875305,
        0.5559015274047852
      ],
      "min": [
        -0.5559011101722717,
        -0.38889002799987793,
        -0.5559015274047852
      ],
      "type": "VEC3"
    },
    {
      "bufferView": 2,
      "byteOffset": 1728,
      "componentType": 5126,
      "count": 144,
      "max": [
        0.9425168037414551,
        0.9996081590652466,
        0.942516565322876
      ],
      "min": [
        -0.9425168037414551,
        -1.0,
        -0.942516565322876
      ],
      "type": "VEC3"
    },
    {
      "bufferView": 1,
      "componentType": 5126,
      "count": 144,
      "max": [
        0.875,
        1.0
      ],
      "min": [
        0.125,
        0.0
      ],
      "type": "VEC2"
    },
    {
      "bufferView": 0,
      "componentType": 5125,
      "count": 216,
      "type": "SCALAR"
    },
    {
      "bufferView": 2,
      "byteOffset": 3456,
      "componentType": 5126,
      "count": 16,
      "max": [
        0.5070399641990662,
        0.4553897976875305,
        0.5070400238037109
      ],
      "min": [
        -0.5070399641990662,
        0.38888999819755554,
        -0.5070400238037109
      ],
      "type": "VEC3"
    },
    {
      "bufferView": 2,
      "byteOffset": 3648,
      "componentType": 5126,
      "count": 16,
      "max": [
        0.08784088492393494,
        0.9922540187835693,
        0.08784095197916031
      ],
      "min": [
        -0.08784088492393494,
        0.9922539591789246,
        -0.08784095197916031
      ],
      "type": "VEC3"
    },
    {
      "bufferView": 1,
      "byteOffset": 1152,
      "componentType": 5126,
      "count": 16,
      "max": [
        0.625,
        0.5
      ],
      "min": [
        0.375,
        0.25
      ],
      "type": "VEC2"
    },
    {
      "bufferView": 0,
      "byteOffset": 864,
      "componentType": 5125,
      "count": 24,
      "type": "SCALAR"
    },
    {
      "bufferView": 2,
      "byteOffset": 3840,
      "componentType": 5126,
      "count": 1258,
      "max": [
        2.053889274597168,
        3.375123977661133,
        -4.012574195861816
      ],
      "min": [
        -2.4015119075775146,
        2.0305354595184326,
        -8.426044464111328
      ],
      "type": "VEC3"
    },
    {
      "bufferView": 2,
      "byteOffset": 18936,
      "componentType": 5126,
      "count": 1258,
      "max": [
        0.9988447427749634,
        1.0,
        0.9991530179977417
      ],
      "min": [
        -0.9988448023796082,
        -0.8674048781394958,
        -0.9991530179977417
      ],
      "type": "VEC3"
    },
    {
      "bufferView": 1,
      "byteOffset": 1280,
      "componentType": 5126,
      "count": 1258,
      "max": [
        1.0,
        1.0
      ],
      "min": [
        0.0,
        0.0
      ],
      "type": "VEC2"
    },
    {
      "bufferView": 0,
      "byteOffset": 960,
      "componentType": 5125,
      "count": 1968,
      "type": "SCALAR"
    },
    {
      "bufferView": 2,
      "byteOffset": 34032,
      "componentType": 5126,
      "count": 896,
      "max": [
        0.48836207389831543,
        3.602797269821167,
        -5.553122520446777
      ],
      "min": [
        -0.6872718334197998,
        2.633755683898926,
        -6.57245397567749
      ],
      "type": "VEC3"
    },
    {
      "bufferView": 2,
      "byteOffset": 44784,
      "componentType": 5126,
      "count": 896,
      "max": [
        0.9974687695503235,
        0.950555145740509,
        0.994248628616333
      ],
      "min": [
        -0.9947987794876099,
        -0.9505611062049866,
        -0.999669075012207
      ],
      "type": "VEC3"
    },
    {
      "bufferView": 1,
      "byteOffset": 11344,
      "componentType": 5126,
      "count": 896,
      "max": [
        0.875,
        1.0
      ],
      "min": [
        0.125,
        0.0
      ],
      "type": "VEC2"
    },
    {
      "bufferView": 0,
      "byteOffset": 8832,
      "componentType": 5125,
      "count": 1344,
      "type": "SCALAR"
    },
    {
      "bufferView": 2,
      "byteOffset": 55536,
      "componentType": 5126,
      "count": 896,
      "max": [
        0.7404630184173584,
        3.828511953353882,
        -5.383810997009277
      ],
      "min": [
        -0.8765933513641357,
        2.463355302810669,
        -6.929283142089844
      ],
      "type": "VEC3"
    },
    {
      "bufferView": 2,
      "byteOffset": 66288,
      "componentType": 5126,
      "count": 896,
      "max": [
        0.9965545535087585,
        0.7943941950798035,
        0.9998551607131958
      ],
      "min": [
        -0.996554434299469,
        -0.7939824461936951,
        -0.9998551607131958
      ],
      "type": "VEC3"
    },
    {
      "bufferView": 1,
      "byteOffset": 18512,
      "componentType": 5126,
      "count": 896,
      "max": [
        0.875,
        1.0
      ],
      "min": [
        0.125,
        0.0
      ],
      "type": "VEC2"
    },
    {
      "bufferView": 0,
      "byteOffset": 14208,
      "componentType": 5125,
      "count": 1344,
      "type": "SCALAR"
    },
    {
      "bufferView": 2,
      "byteOffset": 77040,
      "componentType": 5126,
      "count": 896,
      "max": [
        0.9609196186065674,
        3.6678552627563477,
        -5.00254487991333
      ],
      "min": [
        -1.2809240818023682,
        2.1549909114837646,
        -7.176806449890137
      ],
      "type": "VEC3"
    },
    {
      "bufferView": 2,
      "byteOffset": 87792,
      "componentType": 5126,
      "count": 896,
      "max": [
        0.9938808083534241,
        0.5292425155639648,
        0.993854284286499
      ],
      "min": [
        -0.9940078258514404,
        -0.5291131734848022,
        -0.9791708588600159
      ],
      "type": "VEC3"
    },
    {
      "bufferView": 1,
      "byteOffset": 25680,
      "componentType": 5126,
      "count": 896,
      "max": [
        0.875,
        1.0
      ],
      "min": [
        0.125,
        0.0
      ],
      "type": "VEC2"
    },
    {
      "bufferView": 0,
      "byteOffset": 19584,
      "componentType": 5125,
      "count": 1344,
      "type": "SCALAR"
    },
    {
      "bufferView": 2,
      "byteOffset": 98544,
      "componentType": 5126,
      "count": 896,
      "max": [
        1.3566045761108398,
        3.5810129642486572,
        -4.62924861907959
      ],
      "min": [
        -1.5730926990509033,
        2.26973819732666,
        -7.563032150268555
      ],
      "type": "VEC3"
    },
    {
      "bufferView": 2,
      "byteOffset": 109296,
      "componentType": 5126,
      "count": 896,
      "max": [
        0.9931979775428772,
        0.6346031427383423,
        0.9948088526725769
      ],
      "min": [
        -0.993197500705719,
        -0.5597923994064331,
        -0.9948089718818665
      ],
      "type": "VEC3"
    },
    {
      "bufferView": 1,
      "byteOffset": 32848,
      "componentType": 5126,
      "count": 896,
      "max": [
        0.875,
        1.0
      ],
      "min": [
        0.125,
        0.0
      ],
      "type": "VEC2"
    },
    {
      "bufferView": 0,
      "byteOffset": 24960,
      "componentType": 5125,
      "count": 1344,
      "type": "SCALAR"
    },
    {
      "bufferView": 2,
      "byteOffset": 120048,
      "componentType": 5126,
      "count": 896,
      "max": [
        1.7182798385620117,
        3.4092912673950195,
        -4.436492919921875
      ],
      "min": [
        -1.9302523136138916,
        2.0436480045318604,
        -7.967207908630371
      ],
      "type": "VEC3"
    },
    {
      "bufferView": 2,
      "byteOffset": 130800,
      "componentType": 5126,
      "count": 896,
      "max": [
        0.9848815202713013,
        0.8660874962806702,
        0.9842395186424255
      ],
      "min": [
        -0.9639898538589478,
        -0.7841070890426636,
        -0.9813353419303894
      ],
      "type": "VEC3"
    },
    {
      "bufferView": 1,
      "byteOffset": 40016,
      "componentType": 5126,
      "count": 896,
      "max": [
        0.875,
        1.0
      ],
      "min": [
        0.125,
        0.0
      ],
      "type": "VEC2"
    },
    {
      "bufferView": 0,
      "byteOffset": 30336,
      "componentType": 5125,
      "count": 1344,
      "type": "SCALAR"
    },
    {
      "bufferView": 2,
      "byteOffset": 141552,
      "componentType": 5126,
      "count": 112,
      "max": [
        1.2471625804901123,
        7.143372535705566,
        0.3105202615261078
      ],
      "min": [
        -0.726865828037262,
        5.186846733093262,
        -0.7146416902542114
      ],
      "type": "VEC3"
    },
    {
      "bufferView": 2,
      "byteOffset": 142896,
      "componentType": 5126,
      "count": 112,
      "max": [
        0.9983590245246887,
        0.5583508014678955,
        0.999729573726654
      ],
      "min": [
        -0.9983639121055603,
        -0.5573211908340454,
        -0.999729573726654
      ],
      "type": "VEC3"
    },
    {
      "bufferView": 1,
      "byteOffset": 47184,
      "componentType": 5126,
      "count": 112,
      "max": [
        0.875,
        1.0
      ],
      "min": [
        0.125,
        0.0
      ],
      "type": "VEC2"
    },
    {
      "bufferView": 0,
      "byteOffset": 35712,
      "componentType": 5125,
      "count": 168,
      "type": "SCALAR"
    },
    {
      "bufferView": 2,
      "byteOffset": 144240,
      "componentType": 5126,
      "count": 112,
      "max": [
        1.2471625804901123,
        7.143372535705566,
        0.3105202615261078
      ],
      "min": [
        -0.726865828037262,
        5.186846733093262,
        -0.7146416902542114
      ],
      "type": "VEC3"
    },
    {
      "bufferView": 2,
      "byteOffset": 145584,
      "componentType": 5126,
      "count": 112,
      "max": [
        0.9983590245246887,
        0.5583508014678955,
        0.999729573726654
      ],
      "min": [
        -0.9983639121055603,
        -0.5573211908340454,
        -0.999729573726654
      ],
      "type": "VEC3"
    },
    {
      "bufferView": 1,
      "byteOffset": 48080,
      "componentType": 5126,
      "count": 112,
      "max": [
        0.875,
        1.0
      ],
      "min": [
        0.125,
        0.0
      ],
      "type": "VEC2"
    },
    {
      "bufferView": 0,
      "byteOffset": 36384,
      "componentType": 5125,
      "count": 168,
      "type": "SCALAR"
    }
  ],
  "asset": {
    "extras": {
      "author": "sam (https://sketchfab.com/pigeons)",
      "license": "CC-BY-4.0 (http://creativecommons.org/licenses/by/4.0/)",
      "source": "https://sketchfab.com/3d-models/low-poly-succulent-plant-3d13414a56ce4126b18e487772d27879",
      "title": "low poly succulent plant"
    },
    "generator": "Sketchfab-12.68.0",
    "version": "2.0"
  },
  "bufferViews": [
    {
      "buffer": 0,
      "byteLength": 37056,
      "name": "floatBufferViews",
      "target": 34963
    },
    {
      "buffer": 0,
      "byteLength": 48976,
      "byteOffset": 37056,
      "byteStride": 8,
      "name": "floatBufferViews",
      "target": 34962
    },
    {
      "buffer": 0,
      "byteLength": 146928,
      "byteOffset": 86032,
      "byteStride": 12,
      "name": "floatBufferViews",
      "target": 34962
    }
  ],
  "buffers": [
    {
      "byteLength": 232960,
      "uri": "scene.bin"
    }
  ],
  "materials": [
    {
      "doubleSided": true,
      "name": "phong7",
      "pbrMetallicRoughness": {
        "baseColorFactor": [
          0.384,
          0.190089,
          0.11712,
          1.0
        ]
      }
    },
    {
      "doubleSided": true,
      "name": "dirt",
      "pbrMetallicRoughness": {
        "baseColorFactor": [
          0.0539,
          0.0335,
          0.0259,
          1.0
        ],
        "metallicFactor": 0.0
      }
    },
    {
      "doubleSided": true,
      "name": "green_1",
      "pbrMetallicRoughness": {
        "baseColorFactor": [
          0.1046,
          0.2656,
          0.0975,
          1.0
        ]
      }
    },
    {
      "doubleSided": true,
      "name": "green_6",
      "pbrMetallicRoughness": {
        "baseColorFactor": [
          0.2776230759599529,
          0.8434024059869809,
          0.24241297281648924,
          1.0
        ]
      }
    },
    {
      "doubleSided": true,
      "name": "green_5",
      "pbrMetallicRoughness": {
        "baseColorFactor": [
          0.19049999999999997,
          0.7669999999999998,
          0.16499999999999995,
          1.0
        ],
        "roughnessFactor": 0.8942628736559436
      }
    },
    {
      "doubleSided": true,
      "name": "green_4",
      "pbrMetallicRoughness": {
        "baseColorFactor": [
          0.1675,
          0.5884,
          0.1489,
          1.0
        ]
      }
    },
    {
      "doubleSided": true,
      "name": "green_3",
      "pbrMetallicRoughness": {
        "baseColorFactor": [
          0.18420000000000009,
          0.5153000000000001,
          0.16960000000000003,
          1.0
        ]
      }
    },
    {
      "doubleSided": true,
      "name": "green_2",
      "pbrMetallicRoughness": {
        "baseColorFactor": [
          0.14259999999999992,
          0.4132000000000001,
          0.1307,
          1.0
        ]
      }
    }
  ],
  "meshes": [
    {
      "name": "pCube45_phong7_0",
      "primitives": [
        {
          "attributes": {
            "NORMAL": 1,
            "POSITION": 0,
            "TEXCOORD_0": 2
          },
          "indices": 3,
          "material": 0,
          "mode": 4
        }
      ]
    },
    {
      "name": "pCube45_dirt_0",
      "primitives": [
        {
          "attributes": {
            "NORMAL": 5,
            "POSITION": 4,
            "TEXCOORD_0": 6
          },
          "indices": 7,
          "material": 1,
          "mode": 4
        }
      ]
    },
    {
      "name": "pCube48_green_1_0",
      "primitives": [
        {
          "attributes": {
            "NORMAL": 9,
            "POSITION": 8,
            "TEXCOORD_0": 10
          },
          "indices": 11,
          "material": 2,
          "mode": 4
        }
      ]
    },
    {
      "name": "pCube48_green_6_0",
      "primitives": [
        {
          "attributes": {
            "NORMAL": 13,
            "POSITION": 12,
            "TEXCOORD_0": 14
          },
          "indices": 15,
          "material": 3,
          "mode": 4
        }
      ]
    },
    {
      "name": "pCube48_green_5_0",
      "primitives": [
        {
          "attributes": {
            "NORMAL": 17,
            "POSITION": 16,
            "TEXCOORD_0": 18
          },
          "indices": 19,
          "material": 4,
          "mode": 4
        }
      ]
    },
    {
      "name": "pCube48_green_4_0",
      "primitives": [
        {
          "attributes": {
            "NORMAL": 21,
            "POSITION": 20,
            "TEXCOORD_0": 22
          },
          "indices": 23,
          "material": 5,
          "mode": 4
        }
      ]
    },
    {
      "name": "pCube48_green_3_0",
      "primitives": [
        {
          "attributes": {
            "NORMAL": 25,
            "POSITION": 24,
            "TEXCOORD_0": 26
          },
          "indices": 27,
          "material": 6,
          "mode": 4
        }
      ]
    },
    {
      "name": "pCube48_green_2_0",
      "primitives": [
        {
          "attributes": {
            "NORMAL": 29,
            "POSITION": 28,
            "TEXCOORD_0": 30
          },
          "indices": 31,
          "material": 7,
          "mode": 4
        }
      ]
    },
    {
      "name": "pCube49_green_1_0",
      "primitives": [
        {
          "attributes": {
            "NORMAL": 33,
            "POSITION": 32,
            "TEXCOORD_0": 34
          },
          "indices": 35,
          "material": 2,
          "mode": 4
        }
      ]
    },
    {
      "name": "pCube50_green_1_0",
      "primitives": [
        {
          "attributes": {
            "NORMAL": 37,
            "POSITION": 36,
            "TEXCOORD_0": 38
          },
          "indices": 39,
          "material": 2,
          "mode": 4
        }
      ]
    }
  ],
  "nodes": [
    {
      "children": [
        1
      ],
      "matrix": [
        1.0,
        0.0,
        0.0,
        0.0,
        0.0,
        2.220446049250313e-16,
        -1.0,
        0.0,
        0.0,
        1.0,
        2.220446049250313e-16,
        0.0,
        0.0,
        0.0,
        0.0,
        1.0
      ],
      "name": "Sketchfab_model"
    },
    {
      "children": [
        2
      ],
      "matrix": [
        0.009999999776482582,
        0.0,
        0.0,
        0.0,
        0.0,
        0.0,
        0.009999999776482582,
        0.0,
        0.0,
        -0.009999999776482582,
        0.0,
        0.0,
        0.0,
        0.0,
        0.0,
        1.0
      ],
      "name": "1bffc4ee2c3f479f9a5a867f8ccd4fd2.fbx"
    },
    {
      "children": [
        3,
        6,
        13,
        15
      ],
      "name": "RootNode"
    },
    {
      "children": [
        4,
        5
      ],
      "matrix": [
        2.763266086578369,
        0.0,
        0.0,
        0.0,
        0.0,
        2.763266086578369,
        0.0,
        0.0,
        0.0,
        0.0,
        2.763266086578369,
        0.0,
        0.0,
        1.0340262651443481,
        -6.194279193878174,
        1.0
      ],
      "name": "pCube45"
    },
    {
      "mesh": 0,
      "name": "pCube45_phong7_0"
    },
    {
      "mesh": 1,
      "name": "pCube45_dirt_0"
    },
    {
      "children": [
        7,
        8,
        9,
        10,
        11,
        12
      ],
      "matrix": [
        0.9041960835456848,
        0.0,
        0.0,
        0.0,
        0.0,
        1.0429353713989258,
        0.0,
        0.0,
        0.0,
        0.0,
        0.9041960835456848,
        0.0,
        0.004614956211298704,
        -0.022506214678287506,
        -0.5466881990432739,
        1.0
      ],
      "name": "pCube48"
    },
    {
      "mesh": 2,
      "name": "pCube48_green_1_0"
    },
    {
      "mesh": 3,
      "name": "pCube48_green_6_0"
    },
    {
      "mesh": 4,
      "name": "pCube48_green_5_0"
    },
    {
      "mesh": 5,
      "name": "pCube48_green_4_0"
    },
    {
      "mesh": 6,
      "name": "pCube48_green_3_0"
    },
    {
      "mesh": 7,
      "name": "pCube48_green_2_0"
    },
    {
      "children": [
        14
      ],
      "matrix": [
        0.5201585257345611,
        -0.14075154376523713,
        0.36272942671537906,
        0.0,
        0.024214324096675566,
        0.09464617437712053,
        0.002002341077879609,
        0.0,
        -0.5582398123876078,
        0.12485942565671741,
        0.8489726282238891,
        0.0,
        -1.6491119861602783,
        1.9210935831069946,
        -7.0017523765563965,
        1.0
      ],
      "name": "pCube49"
    },
    {
      "mesh": 8,
      "name": "pCube49_green_1_0"
    },
    {
      "children": [
        16
      ],
      "matrix": [
        -0.23164458628961346,
        -0.2136410958460118,
        0.7704457016641015,
        0.0,
        -0.003582025382153511,
        0.10209102256948184,
        0.027232394320246982,
        0.0,
        -1.0631710382822046,
        0.0446606298674132,
        -0.3072721009418325,
        0.0,
        0.5394037961959839,
        1.9210935831069946,
        -8.029943466186523,
        1.0
      ],
      "name": "pCube50"
    },
    {
      "mesh": 9,
      "name": "pCube50_green_1_0"
    }
  ],
  "scene": 0,
  "scenes": [
    {
      "name": "Sketchfab_Scene",
      "nodes": [
        0
      ]
    }
  ]
}
